<?xml version="1.0" encoding="utf-8"?>
<!-- Generator: Adobe Illustrator 17.0.0, SVG Export Plug-In . SVG Version: 6.00 Build 0)  -->
<!DOCTYPE svg PUBLIC "-//W3C//DTD SVG 1.1//EN" "http://www.w3.org/Graphics/SVG/1.1/DTD/svg11.dtd">
<svg version="1.1" id="图层_1" xmlns="http://www.w3.org/2000/svg" xmlns:xlink="http://www.w3.org/1999/xlink" x="0px" y="0px"
	 width="260px" height="240px" viewBox="0 0 260 240" enable-background="new 0 0 260 240" xml:space="preserve">
<path fill="#D48419" d="M136.211,11.224c0.549,8.002-3.569,10.864-3.569,10.864s-3.335-1.565-3.796-8.277
	c-0.602-8.771,4.224-11.42,4.224-11.42S135.748,4.487,136.211,11.224z"/>
<path fill="#683D1A" d="M202.576,112.457c-28.038,8.369-52.038,27.183-57.664,27.183c-1.648,0-2.942-3.412-2.942-10.12
	c0-23.919,4.281-29.432,8.946-35.114c6.237-7.596,9.122-11.786,8.123-12.785s-1.607-0.385-12.196,6.94
	c-11.527,7.974-10.625,8.366-11.934,8.366c-2.462,0-1.163,1.738-9.533-8.011c-5.796-6.751-14.006-10.946-15.183-9.769
	c-0.647,0.647-0.234,0.475,6.121,10.593c7.401,11.783,6.004,22.245,6.004,37.897c0,11.278-1.413,17.662-5.992,17.662
	c-2.6,0-11.791-4.118-24.28-15.038c-10.596-9.265-11.981-15.761-12.688-15.761c-1.82,0,0.43,14.158,4.35,18.787
	c-5.291-1.619-42.242-2.354-42.242-0.582c0,2.656,40.717,3.641,59.9,21.758c11.931,11.269,14.903,10.178,14.903,31.541
	s-6.115,30.338-13.317,34.153c-5.7,3.019-12.167,5.572-16.07,7.876c-5.398,3.186-5.398,1.504-5.398,3.186
	c0,1.681,11.641,0.448,14.124-0.619c5.114-2.198,15.498-4.354,23.285-4.354c5.575,0,8.767-0.524,13.658,3.015
	c15.303,11.073,24.252,10.725,25.216,9.76c0.373-0.373-0.654-0.515-3.551-2.393c-4.583-2.972-6.268-10.49-4.857-11.901
	c2.399-2.399,10.122,13.394,31.449,1.536c3.969-2.207-8.492,2.166-25.999-12.655c-4.481-3.793-8.57-12.209-8.57-20.744
	c0-25.637,4.341-30.108,7.144-35.733c9.866-19.795,31.775-34.469,50.234-41.622C218.842,109.606,214.53,108.889,202.576,112.457z"/>
<path fill="#689732" d="M65.289,142.209c18.797,3.85,22.762,15.174,22.762,15.174s-5.74,6.686-21.506,3.457
	c-20.603-4.22-23.624-17.038-23.624-17.038S49.461,138.967,65.289,142.209z"/>
<path fill="#689732" d="M230.085,142.621c-12.324,0-16.279,6.615-16.279,6.615s2.75,4.947,13.087,4.947
	c13.509,0,17.062-7.676,17.062-7.676S240.462,142.621,230.085,142.621z"/>
<path fill="#689732" d="M91.215,70.061c12.595,12.206,10.085,22.882,10.085,22.882s-7.71,2.332-18.274-7.906
	c-13.805-13.379-9.833-24.742-9.833-24.742S80.61,59.784,91.215,70.061z"/>
<path fill="#D48419" d="M89.673,97.099c11.536,5.163,12.466,13.011,12.466,13.011s-4.647,3.478-14.322-0.852
	c-12.644-5.659-12.754-14.333-12.754-14.333S79.96,92.752,89.673,97.099z"/>
<path fill="#DCB326" d="M105.621,120.9c9.07,8.802,7.256,16.494,7.256,16.494s-5.557,1.677-13.164-5.706
	c-9.942-9.647-7.074-17.834-7.074-17.834S97.984,113.489,105.621,120.9z"/>
<path fill="#AE2D23" d="M114.979,101.88c5.807,9.505,2.569,15.671,2.569,15.671s-5.111,0.21-9.982-7.762
	c-6.365-10.418-2.119-16.775-2.119-16.775S110.089,93.877,114.979,101.88z"/>
<path fill="#AE2D23" d="M107.217,19.675c6.766,12.427,2.268,20.045,2.268,20.045s-6.498-0.057-12.173-10.48
	C89.895,15.62,95.685,7.823,95.685,7.823S101.52,9.211,107.217,19.675z"/>
<path fill="#DCB326" d="M116.506,64.084c4.439,8.153,1.488,13.152,1.488,13.152s-4.263-0.037-7.987-6.876
	c-4.866-8.937-1.067-14.052-1.067-14.052S112.768,57.219,116.506,64.084z"/>
<path fill="#D48419" d="M23.184,132.449c12.242-1.07,16.744,5.158,16.744,5.158s-2.302,5.153-12.57,6.05
	c-13.418,1.172-17.614-6.145-17.614-6.145S12.875,133.349,23.184,132.449z"/>
<path fill="#D48419" d="M60.282,111.412c13.343,4.84,15.026,13.555,15.026,13.555s-4.92,4.276-16.112,0.216
	c-14.625-5.305-15.456-15.012-15.456-15.012S49.047,107.336,60.282,111.412z"/>
<path fill="#689732" d="M38.111,117.412c8.875,3.424,9.885,9.286,9.885,9.286s-3.355,2.799-10.799-0.073
	c-9.728-3.753-10.154-10.268-10.154-10.268S30.638,114.529,38.111,117.412z"/>
<path fill="#DCB326" d="M32.989,97.495c8.935,7.255,7.908,14.378,7.908,14.378s-4.906,1.968-12.4-4.117
	c-9.794-7.952-7.851-15.608-7.851-15.608S25.466,91.386,32.989,97.495z"/>
<path fill="#689732" d="M15.329,100.612c4.318,3.506,3.822,6.949,3.822,6.949s-2.371,0.951-5.993-1.99
	c-4.733-3.843-3.794-7.544-3.794-7.544S11.693,97.659,15.329,100.612z"/>
<path fill="#D48419" d="M25.752,77.025c5.996,4.868,5.307,9.648,5.307,9.648s-3.292,1.321-8.321-2.763
	c-6.572-5.336-5.268-10.474-5.268-10.474S20.703,72.926,25.752,77.025z"/>
<path fill="#DCB326" d="M47.227,48.184c6.378,8.209,4.019,14.266,4.019,14.266s-4.718,0.729-10.068-6.157
	c-6.991-8.998-3.716-15.337-3.716-15.337S41.857,41.272,47.227,48.184z"/>
<path fill="#D48419" d="M61.508,69.98c5.859,5.477,4.8,10.38,4.8,10.38s-3.506,1.13-8.421-3.464c-6.423-6.004-4.7-11.232-4.7-11.232
	S56.574,65.368,61.508,69.98z"/>
<path fill="#AE2D23" d="M62.351,50.148c5.739,7.864,3.36,13.467,3.36,13.467s-4.437,0.549-9.251-6.047
	c-6.291-8.62-3.047-14.461-3.047-14.461S57.518,43.527,62.351,50.148z"/>
<path fill="#D48419" d="M84.723,40.33c5.008,11.206,0.601,17.489,0.601,17.489s-5.616-0.49-9.816-9.889
	c-5.489-12.283,0.047-18.632,0.047-18.632S80.506,30.895,84.723,40.33z"/>
<path fill="#DCB326" d="M89.214,22.211c5.799,8.076,3.325,13.779,3.325,13.779s-4.535,0.526-9.399-6.248
	c-6.356-8.852-2.998-14.791-2.998-14.791S84.331,15.411,89.214,22.211z"/>
<path fill="#689732" d="M125.034,54.794c2.147,8.704-1.835,12.649-1.835,12.649s-3.973-1.08-5.774-8.38
	c-2.354-9.54,2.449-13.386,2.449-13.386S123.226,47.465,125.034,54.794z"/>
<path fill="#689732" d="M121.3,10.603c5.97,9.174,2.962,15.321,2.962,15.321s-5.014,0.349-10.022-7.345
	c-6.544-10.055-2.551-16.418-2.551-16.418S116.273,2.878,121.3,10.603z"/>
<path fill="#D48419" d="M133.06,56.87c3.246,3.164,2.589,5.922,2.589,5.922s-1.994,0.597-4.717-2.057
	c-3.558-3.468-2.522-6.402-2.522-6.402S130.327,54.206,133.06,56.87z"/>
<path fill="#689732" d="M68.171,40.975c1.625,5.912-1.027,8.682-1.027,8.682s-2.736-0.667-4.099-5.626
	c-1.781-6.48,1.433-9.197,1.433-9.197S66.803,35.997,68.171,40.975z"/>
<path fill="#689732" d="M66.326,86.524c4.805,4.491,3.936,8.511,3.936,8.511s-2.875,0.926-6.905-2.841
	c-5.266-4.923-3.854-9.21-3.854-9.21S62.28,82.742,66.326,86.524z"/>
<path fill="#DCB326" d="M36.397,147.079c6.535,0.74,8.235,4.485,8.235,4.485s-1.755,2.458-7.237,1.837
	c-7.163-0.811-8.586-5.095-8.586-5.095S30.895,146.455,36.397,147.079z"/>
<path fill="#D48419" d="M98.14,42.419c5.097,4.157,4.501,8.226,4.501,8.226s-2.806,1.118-7.081-2.368
	c-5.587-4.556-4.467-8.929-4.467-8.929S93.849,38.919,98.14,42.419z"/>
<path fill="#AE2D23" d="M98.408,54.922c6.021,5.299,5.109,10.231,5.109,10.231s-3.471,1.235-8.521-3.21
	c-6.6-5.808-5.035-11.086-5.035-11.086S93.338,50.46,98.408,54.922z"/>
<path fill="#DCB326" d="M124.178,34.497c4.518,6.628,2.41,11.179,2.41,11.179s-3.668,0.335-7.458-5.224
	c-4.952-7.264-2.126-11.989-2.126-11.989S120.374,28.917,124.178,34.497z"/>
<path fill="#D48419" d="M103.326,71.524c4.805,4.491,3.936,8.511,3.936,8.511s-2.875,0.926-6.905-2.841
	c-5.266-4.923-3.854-9.21-3.854-9.21S99.28,67.742,103.326,71.524z"/>
<path fill="#AE2D23" d="M130.548,74.892c1.489,6.406-1.472,9.261-1.472,9.261s-2.904-0.832-4.152-6.205
	c-1.632-7.022,1.929-9.796,1.929-9.796S129.295,69.498,130.548,74.892z"/>
<path fill="#DCB326" d="M77.231,85.64c3.284,3.07,2.69,5.818,2.69,5.818s-1.965,0.633-4.72-1.942
	c-3.6-3.365-2.634-6.296-2.634-6.296S74.465,83.055,77.231,85.64z"/>
<path fill="#689732" d="M110.553,47.88c2.658,3.626,1.564,6.216,1.564,6.216s-2.049,0.258-4.278-2.784
	c-2.913-3.975-1.421-6.675-1.421-6.675S108.315,44.826,110.553,47.88z"/>
<path fill="#AE2D23" d="M130.891,33.266c1.724,4.152,0.049,6.41,0.049,6.41s-2.051-0.234-3.497-3.717
	c-1.89-4.551,0.2-6.822,0.2-6.822S129.439,29.77,130.891,33.266z"/>
<path fill="#AE2D23" d="M55.504,89.4c13.175,8.014,13.101,17.657,13.101,17.657s-6.157,3.5-17.208-3.222
	C36.956,95.051,38.15,84.534,38.15,84.534S44.411,82.652,55.504,89.4z"/>
<path fill="#D48419" d="M163.968,82.888c-12.102,11.888-9.605,22.198-9.605,22.198s7.472,2.205,17.623-7.766
	c13.265-13.031,9.349-23.996,9.349-23.996S174.159,72.878,163.968,82.888z"/>
<path fill="#779C2E" d="M199.868,95.045c-13.897,5.826-15.229,15.155-15.229,15.155s5.44,4.278,17.096-0.609
	c15.233-6.386,15.61-16.722,15.61-16.722S211.57,90.139,199.868,95.045z"/>
<path fill="#689732" d="M136.128,32.706c-4.063,14.511,2.421,21.348,2.421,21.348s6.731-1.607,10.139-13.778
	c4.454-15.905-3.414-22.619-3.414-22.619S139.549,20.488,136.128,32.706z"/>
<path fill="#AE2D23" d="M160.336,111.546c-11.737,5.806-12.387,13.968-12.387,13.968s4.949,3.416,14.794-1.454
	c12.865-6.364,12.632-15.348,12.632-15.348S170.219,106.658,160.336,111.546z"/>
<path fill="#AE2D23" d="M219.306,130.803c-9.131,3.375-10.249,9.358-10.249,9.358s3.392,2.912,11.051,0.081
	c10.008-3.699,10.538-10.359,10.538-10.359S226.994,127.961,219.306,130.803z"/>
<path fill="#D48419" d="M213.759,153.967c-6.98-1-9.757,2.425-9.757,2.425s1.156,3.025,7.011,3.864
	c7.651,1.096,10.286-2.963,10.286-2.963S219.637,154.809,213.759,153.967z"/>
<path fill="#689732" d="M195.183,142.549c-15.432,2.176-19.215,11.156-19.215,11.156s4.317,5.709,17.26,3.884
	c16.915-2.385,20.008-12.624,20.008-12.624S208.177,140.717,195.183,142.549z"/>
<path fill="#D0850A" d="M194.695,123.836c-12.205,7.587-12.05,16.571-12.05,16.571s5.769,3.207,16.006-3.157
	c13.378-8.316,12.171-18.105,12.171-18.105S204.972,117.448,194.695,123.836z"/>
<path fill="#DFB624" d="M243.537,124.956c-10.833,5.66-11.271,13.29-11.271,13.29s4.689,3.086,13.776-1.662
	c11.874-6.204,11.472-14.583,11.472-14.583S252.659,120.19,243.537,124.956z"/>
<path fill="#D48419" d="M229.947,111.552c-9.087,6.431-8.551,13.371-8.551,13.371s4.609,2.213,12.23-3.181
	c9.96-7.049,8.574-14.562,8.574-14.562S237.598,106.137,229.947,111.552z"/>
<path fill="#B01F28" d="M217.229,69.209c-14.084,9.457-13.527,20.05-13.527,20.05s6.939,3.543,18.752-4.389
	c15.437-10.366,13.606-21.865,13.606-21.865S229.088,61.246,217.229,69.209z"/>
<path fill="#D48419" d="M226.31,86.5c-6.082,4.491-5.623,9.196-5.623,9.196s3.16,1.439,8.261-2.327
	c6.666-4.922,5.622-10.005,5.622-10.005S231.431,82.719,226.31,86.5z"/>
<path fill="#D48419" d="M193.067,77.259c-5.79,5.308-4.799,10.119-4.799,10.119s3.423,1.14,8.28-3.312
	c6.347-5.818,4.71-10.955,4.71-10.955S197.942,72.789,193.067,77.259z"/>
<path fill="#DCB326" d="M163.547,150.011c-6.522,4.378-6.265,9.283-6.265,9.283s3.213,1.641,8.683-2.031
	c7.149-4.799,6.302-10.124,6.302-10.124S169.038,146.325,163.547,150.011z"/>
<path fill="#DCB326" d="M207.105,56.352c-5.889,8.29-3.329,14.111-3.329,14.111s4.642,0.514,9.582-6.44
	c6.455-9.087,2.989-15.145,2.989-15.145S212.064,49.372,207.105,56.352z"/>
<path fill="#AE2D23" d="M165.574,54.009c-5.316,10.95-1.145,17.317-1.145,17.317s5.582-0.309,10.041-9.494
	c5.827-12.002,0.539-18.47,0.539-18.47S170.05,44.789,165.574,54.009z"/>
<path fill="#D48419" d="M147.417,51.748c-9.061,9.922-6.643,17.969-6.643,17.969s6.005,1.423,13.605-6.899
	c9.932-10.876,6.364-19.38,6.364-19.38S155.047,43.393,147.417,51.748z"/>
<path fill="#689732" d="M187.891,64.328c-5.374,7.565-3.038,12.876-3.038,12.876s4.236,0.469,8.743-5.876
	c5.89-8.292,2.728-13.82,2.728-13.82S192.416,57.958,187.891,64.328z"/>
<path fill="#DCB326" d="M167.891,18.328c-5.374,7.565-3.038,12.876-3.038,12.876s4.236,0.469,8.743-5.876
	c5.89-8.292,2.728-13.82,2.728-13.82S172.416,11.958,167.891,18.328z"/>
<path fill="#DCB326" d="M182.201,54.622c-1.551,6.725,1.561,9.715,1.561,9.715s3.046-0.878,4.346-6.519
	c1.7-7.372-2.042-10.276-2.042-10.276S183.506,48.959,182.201,54.622z"/>
<path fill="#689732" d="M154.201,8.622c-1.551,6.725,1.561,9.716,1.561,9.716s3.046-0.878,4.346-6.519
	c1.7-7.372-2.042-10.276-2.042-10.276S155.506,2.959,154.201,8.622z"/>
<path fill="#689732" d="M196.874,46.406c-4.691,4.45-3.807,8.395-3.807,8.395s2.833,0.89,6.767-2.843
	c5.141-4.878,3.722-9.082,3.722-9.082S200.824,42.659,196.874,46.406z"/>
<path fill="#689732" d="M167.067,35.238c-3.556,5.632-1.675,9.347-1.675,9.347s3.054,0.171,6.037-4.552
	c3.898-6.173,1.416-10.011,1.416-10.011S170.062,30.496,167.067,35.238z"/>
<path fill="#DCB326" d="M139.067,79.238c-3.556,5.632-1.675,9.347-1.675,9.347s3.054,0.171,6.037-4.552
	c3.898-6.173,1.416-10.011,1.416-10.011S142.062,74.496,139.067,79.238z"/>
<path fill="#D48419" d="M156.934,29.289c-3.027,3.215-2.272,5.871-2.272,5.871s1.966,0.498,4.504-2.199
	c3.317-3.524,2.187-6.336,2.187-6.336S159.482,26.582,156.934,29.289z"/>
<path fill="#DCB326" d="M145.934,5.289c-3.027,3.215-2.272,5.871-2.272,5.871s1.966,0.498,4.504-2.199
	c3.317-3.524,2.187-6.336,2.187-6.336S148.482,2.582,145.934,5.289z"/>
<path fill="#AE2D23" d="M182.896,30.493c-1.971,8.549,1.985,12.35,1.985,12.35s3.871-1.116,5.525-8.287
	c2.161-9.371-2.596-13.063-2.596-13.063S184.556,23.294,182.896,30.493z"/>
<path fill="#DCB326" d="M187.799,92.398c-4.83,4.566-3.93,8.624-3.93,8.624s2.911,0.92,6.962-2.91
	c5.295-5.005,3.843-9.33,3.843-9.33S191.866,88.553,187.799,92.398z"/>
<path fill="#689732" d="M246.81,111.851c-4.762,3.516-4.402,7.2-4.402,7.2s2.474,1.127,6.468-1.822
	c5.219-3.854,4.402-7.833,4.402-7.833S250.82,108.89,246.81,111.851z"/>
<path fill="#689732" d="M173.19,99.678c-3.336,2.89-2.855,5.608-2.855,5.608s1.904,0.694,4.703-1.73
	c3.657-3.168,2.818-6.079,2.818-6.079S175.999,97.244,173.19,99.678z"/>
<path fill="#AE2D23" d="M226.799,99.398c-4.83,4.566-3.93,8.624-3.93,8.624s2.911,0.92,6.962-2.91
	c5.295-5.005,3.843-9.33,3.843-9.33S230.866,95.553,226.799,99.398z"/>
<path fill="#689732" d="M217.017,112.416c-4.242,1.221-4.948,3.889-4.948,3.889s1.436,1.43,4.994,0.407
	c4.649-1.338,5.112-4.332,5.112-4.332S220.588,111.388,217.017,112.416z"/>
<path fill="#689732" d="M153.19,68.678c-3.336,2.89-2.855,5.608-2.855,5.608s1.904,0.694,4.703-1.73
	c3.657-3.168,2.818-6.079,2.818-6.079S155.999,66.244,153.19,68.678z"/>
<path fill="#689732" d="M38.007,61.79c13.655,8.306,13.578,18.3,13.578,18.3s-6.381,3.628-17.834-3.339
	c-14.967-9.105-13.73-20.004-13.73-20.004S26.51,54.795,38.007,61.79z"/>
<path fill="#AE2D23" d="M16.521,112.431c10.857,5.756,11.251,13.43,11.251,13.43s-4.733,3.074-13.84-1.755
	c-11.9-6.31-11.445-14.732-11.445-14.732S7.379,107.584,16.521,112.431z"/>
</svg>
